<?xml version="1.0" standalone="no"?>
<!DOCTYPE svg PUBLIC "-//W3C//DTD SVG 20010904//EN"
 "http://www.w3.org/TR/2001/REC-SVG-20010904/DTD/svg10.dtd">
<svg version="1.0" xmlns="http://www.w3.org/2000/svg"
 width="396.000000pt" height="396.000000pt" viewBox="0 0 396.000000 396.000000"
 preserveAspectRatio="xMidYMid meet">
<metadata>
Created by potrace 1.14, written by Peter Selinger 2001-2017
</metadata>
<g transform="translate(0.000000,396.000000) scale(0.100000,-0.100000)"
fill="#000000" stroke="none">
<path d="M1740 3953 c-112 -18 -208 -40 -280 -64 -414 -142 -730 -464 -865
-882 -65 -201 -66 -215 -62 -1067 3 -690 5 -772 21 -840 132 -559 529 -950
1086 -1072 89 -20 134 -21 722 -25 564 -4 634 -3 685 12 146 42 265 143 331
282 34 73 37 85 40 188 3 92 1 120 -18 174 -52 155 -171 273 -336 332 -69 25
-124 27 -789 32 -427 3 -442 4 -497 26 -67 26 -147 94 -180 154 -49 87 -49 89
-46 802 l3 670 33 67 c37 77 90 128 172 167 l55 26 605 5 c601 5 605 5 661 28
139 56 235 144 297 272 34 69 37 83 40 183 3 68 0 126 -8 155 -45 168 -192
314 -369 366 -48 14 -133 16 -665 15 -336 -1 -622 -4 -636 -6z"/>
</g>
</svg>
