<svg data-v-2cb57da0="" version="1.0" xmlns="http://www.w3.org/2000/svg" xmlns:xlink="http://www.w3.org/1999/xlink" width="100%" height="100%" viewBox="0 0 340.000000 250.000000" preserveAspectRatio="xMidYMid meet" color-interpolation-filters="sRGB" style="margin: auto;"><rect data-v-2cb57da0="" x="0" y="0" width="100%" height="100%" fill="#FFFFFF" fill-opacity="0" class="background"></rect> <rect data-v-2cb57da0="" x="0" y="0" width="100%" height="100%" fill="url(#watermark)" fill-opacity="1" class="watermarklayer"></rect> <g data-v-2cb57da0="" fill="#f58e49" class="iconlettersvg-g iconlettersvg" transform="translate(25.531906127929688,97.0999927520752)"><g><g class="tp-name" opacity="1" transform="matrix(1,0,0,1,0,0)"><g transform="scale(1.2399999999999998)"><g transform="translate(0, 0)"><g class="name-imagesvg"><g><rect fill="#f58e49" fill-opacity="0" stroke-width="2" x="0" y="0" width="32.901758820569945" height="45" class="image-rect"></rect> <svg x="0" y="0" width="32.901758820569945" height="45" filtersec="colorsb6606856949" class="image-svg-svg primary" style="overflow: visible;"><svg xmlns="http://www.w3.org/2000/svg" viewBox="0 0 89.31 122.15"><title>资源 49</title><path d="M60.82 15.71a15.71 15.71 0 0 1-15.71 15.71h28.48A15.72 15.72 0 0 0 89.31 15.7V15c-.4-8.48-7.72-15-16.21-15h-28a15.71 15.71 0 0 1 15.72 15.7z" fill="#285181"></path><path d="M73.1 90.7H47.17a15.7 15.7 0 0 1-2.06 31.3h-2.73a26.27 26.27 0 0 1-2.67-.09 17 17 0 0 0 2.67.24h31.21a15.72 15.72 0 0 0 15.72-15.72v-.7c-.4-8.51-7.72-15.03-16.21-15.03z" fill="#f58e49"></path><path d="M26.67 106.41A15.71 15.71 0 0 1 42.38 90.7h4.79a14.17 14.17 0 0 0-2.06-.15h-2.73a11 11 0 0 1-11-11V42.37a11 11 0 0 1 11-10.95 15.71 15.71 0 0 1 0-31.42A42.42 42.42 0 0 0 0 42.37v37.22a42.43 42.43 0 0 0 39.71 42.29 15.72 15.72 0 0 1-13.04-15.47z" fill="#285181"></path><path d="M26.67 15.71a15.71 15.71 0 0 0 15.71 15.71h2.73a15.71 15.71 0 1 0 0-31.42h-2.73a15.71 15.71 0 0 0-15.71 15.71z" fill="#ee2e0b"></path><path d="M45.11 122a15.7 15.7 0 0 0 2.06-31.3h-4.79a15.71 15.71 0 0 0-2.71 31.18c.88.05 1.77.09 2.67.09z" fill="#285181"></path></svg></svg> <!----></g></g></g><g transform="translate(49.901758820569945, 0)"><g class="name-imagesvg"><g><rect fill="#f58e49" fill-opacity="0" stroke-width="2" x="0" y="0" width="32.9615761803799" height="45" class="image-rect"></rect> <svg x="0" y="0" width="32.9615761803799" height="45" filtersec="colorsb2577457402" class="image-svg-svg primary" style="overflow: visible;"><svg xmlns="http://www.w3.org/2000/svg" viewBox="0 0 89.36 122"><title>资源 38</title><path d="M73.61 74A15.72 15.72 0 0 1 57.9 58.33v24a8.22 8.22 0 0 1-8.19 8.2H42.4a11 11 0 0 1-11-11v-1.15A15.71 15.71 0 0 1 0 80a13.88 13.88 0 0 1 0-1.58v1.21A42.43 42.43 0 0 0 42.4 122h7.31a39.66 39.66 0 0 0 39.61-39.65v-24A15.71 15.71 0 0 1 73.61 74z" fill="#285181"></path><path d="M49.71 0H42.4A42.42 42.42 0 0 0 0 42.37v36a15.71 15.71 0 0 1 31.42 0v-36a11 11 0 0 1 11-10.95h7.31a8.22 8.22 0 0 1 8.19 8.2v18.71a15.71 15.71 0 1 1 31.42 0V39.62A39.67 39.67 0 0 0 49.71 0z" fill="#f58e49"></path><circle cx="73.61" cy="58.33" r="15.71" fill="#285181"></circle><ellipse cx="15.72" cy="78.58" rx="15.71" ry="16.41" fill="#285181"></ellipse></svg></svg> <!----></g></g></g><g transform="translate(99.86333500094985, 0)"><g class="name-imagesvg"><g><rect fill="#f58e49" fill-opacity="0" stroke-width="2" x="0" y="0" width="32.94086010646071" height="45" class="image-rect"></rect> <svg x="0" y="0" width="32.94086010646071" height="45" filtersec="colorsb1926009147" class="image-svg-svg primary" style="overflow: visible;"><svg xmlns="http://www.w3.org/2000/svg" viewBox="0 0 89.3 122"><title>资源 40</title><path d="M15.72 62.81a15.71 15.71 0 0 1 15.71 15.71V15.71a15.71 15.71 0 0 0-31.43 0v62.81a15.71 15.71 0 0 1 15.72-15.71z" fill="#f58e49"></path><path d="M73.6 90.55H42.39a11 11 0 0 1-11-11v-1A15.71 15.71 0 0 1 0 78.52v1.07A42.43 42.43 0 0 0 42.39 122H73.6a15.71 15.71 0 0 0 0-31.42z" fill="#285181"></path><circle cx="15.71" cy="78.52" r="15.71" fill="#285181"></circle></svg></svg> <!----></g></g></g><g transform="translate(149.80419510741055, 0)"><g class="name-imagesvg"><g><rect fill="#f58e49" fill-opacity="0" stroke-width="2" x="0" y="0" width="32.9615761803799" height="45" class="image-rect"></rect> <svg x="0" y="0" width="32.9615761803799" height="45" filtersec="colorsb4495718421" class="image-svg-svg primary" style="overflow: visible;"><svg xmlns="http://www.w3.org/2000/svg" viewBox="0 0 89.36 122"><title>资源 38</title><path d="M73.61 74A15.72 15.72 0 0 1 57.9 58.33v24a8.22 8.22 0 0 1-8.19 8.2H42.4a11 11 0 0 1-11-11v-1.15A15.71 15.71 0 0 1 0 80a13.88 13.88 0 0 1 0-1.58v1.21A42.43 42.43 0 0 0 42.4 122h7.31a39.66 39.66 0 0 0 39.61-39.65v-24A15.71 15.71 0 0 1 73.61 74z" fill="#285181"></path><path d="M49.71 0H42.4A42.42 42.42 0 0 0 0 42.37v36a15.71 15.71 0 0 1 31.42 0v-36a11 11 0 0 1 11-10.95h7.31a8.22 8.22 0 0 1 8.19 8.2v18.71a15.71 15.71 0 1 1 31.42 0V39.62A39.67 39.67 0 0 0 49.71 0z" fill="#285181"></path><circle cx="73.61" cy="58.33" r="15.71" fill="#45ae17"></circle><ellipse cx="15.72" cy="78.58" rx="15.71" ry="16.41" fill="#45ae17"></ellipse></svg></svg> <!----></g></g></g><g transform="translate(199.76577128779044, 0)"><g class="name-imagesvg"><g><rect fill="#f58e49" fill-opacity="0" stroke-width="2" x="0" y="0" width="33.24728521424245" height="45" class="image-rect"></rect> <svg x="0" y="0" width="33.24728521424245" height="45" filtersec="colorsb6868066062" class="image-svg-svg primary" style="overflow: visible;"><svg xmlns="http://www.w3.org/2000/svg" viewBox="0 0 90 121.82"><title>资源 35</title><path d="M0 15.56v90.55a15.71 15.71 0 0 0 31.42 0v-75H15.56A15.56 15.56 0 0 1 0 15.56z" fill="#285181"></path><path d="M90 39v-1.39C89.75 16.65 72.12 0 51.12 0H17.77a15.7 15.7 0 0 1 13.65 15.56v15.56h20.22a7.24 7.24 0 0 1 7.14 5.7v.07A7.24 7.24 0 0 1 59 38.2v.29a7.24 7.24 0 0 1-.18 1.31v.07a7.13 7.13 0 0 1-5.31 5.45 14.26 14.26 0 0 1 11.89 7.74l8.25 16.51A37.87 37.87 0 0 0 90 39z" fill="#f58e49"></path><path d="M17.77 0h-2.21A15.56 15.56 0 0 0 .08 14 9.75 9.75 0 0 0 0 15.56a15.56 15.56 0 0 0 15.56 15.56h15.86V15.56A15.7 15.7 0 0 0 17.77 0z" fill="#285181"></path><path d="M51.61 76.68A15.55 15.55 0 0 1 39 69.84l21.61 43.27a15.55 15.55 0 0 0 20.86 7l.39-.2c7.51-4 10.16-13.51 6.36-21.13L73.62 69.6a39.18 39.18 0 0 1-22.01 7.08z" fill="#ffd100"></path><path d="M51.61 76.68a39.12 39.12 0 0 0 22-7.08l-8.25-16.54a14.26 14.26 0 0 0-11.89-7.74 7.54 7.54 0 0 1-1.83.25h.21a15.55 15.55 0 0 0-15.54 15.28V62a15.45 15.45 0 0 0 1.6 5.8l1 2.06a15.55 15.55 0 0 0 12.7 6.82z" fill="#f58e49"></path></svg></svg> <!----></g></g></g></g></g></g> <!----></g><defs v-gra="od"></defs></svg>